<svg width="107" height="83" viewBox="0 0 107 83" fill="none" xmlns="http://www.w3.org/2000/svg">
<path fill-rule="evenodd" clip-rule="evenodd" d="M75.3012 5.91324C77.4012 8.54624 78.3842 11.6802 78.2512 15.3132C78.1842 17.7132 76.6842 20.1462 73.7512 22.6132C72.5842 23.5802 72.0672 24.8462 72.2012 26.4132C73.3343 38.8132 73.6002 49.5802 73.0012 58.7132C72.7342 62.1462 72.5672 64.0132 72.5012 64.3132C72.3012 65.5132 71.9002 66.5972 71.3012 67.5632C70.9012 68.2302 70.5342 68.6802 70.2012 68.9132C69.7342 69.2132 69.1342 69.3472 68.4002 69.3132L65.3503 69.2632C64.7503 69.5302 64.0173 69.6132 63.1502 69.5132C59.4512 69.2462 57.8672 67.1632 58.4002 63.2632C58.4673 62.8302 58.5342 62.2132 58.6003 61.4132C58.6003 60.7462 58.3833 60.1632 57.9513 59.6632C57.7843 59.4962 57.7342 59.2132 57.8013 58.8132C58.3672 56.6802 58.6173 53.9462 58.5513 50.6132C58.4173 46.0462 58.4013 43.2962 58.5013 42.3632C58.6012 40.5962 58.6173 37.4292 58.5513 32.8632C58.4513 28.8302 58.5843 25.6632 58.9513 23.3632C59.1173 22.3302 58.7013 21.5462 57.7013 21.0132C54.6343 19.4132 53.1003 16.5632 53.1003 12.4632C53.0342 8.76324 54.4673 5.58024 57.4002 2.91324C60.4673 0.0802388 63.8002 -0.686761 67.4002 0.613239C70.8012 1.81324 73.4332 3.58024 75.3012 5.91324ZM69.4002 6.26424C70.9002 7.33124 71.7842 8.39724 72.0502 9.46424C72.1833 9.89724 72.2342 10.3142 72.2002 10.7142C72.1332 10.8472 71.8832 11.0472 71.4502 11.3142L70.8002 10.6642C69.6662 7.99724 67.7832 6.53124 65.1502 6.26424C64.6502 6.16424 64.4002 5.88124 64.4002 5.41424C64.4002 4.88124 64.6832 4.61424 65.2512 4.61424C66.4842 4.64724 67.8672 5.19724 69.4002 6.26424ZM57.1003 6.41324C55.4333 8.61324 54.8503 11.0302 55.3503 13.6632C55.8503 16.2632 57.2503 18.2462 59.5503 19.6132C60.1162 19.9802 60.4673 20.3132 60.6003 20.6132C60.7673 20.9802 60.8172 21.4632 60.7502 22.0632C60.5502 23.2302 60.4503 25.3632 60.4503 28.4632C60.4503 30.8632 60.4503 32.6792 60.4503 33.9132C60.4503 36.0462 60.3663 37.8472 60.2003 39.3132C60.0663 40.1462 60.1162 41.6302 60.3492 43.7632C60.5162 45.6632 60.4502 47.2132 60.1493 48.4132C61.6823 47.1462 62.6493 46.3962 63.0493 46.1632C63.4153 45.9302 63.9492 45.7962 64.6492 45.7632C63.9502 46.7962 62.7993 48.2632 61.2003 50.1632C60.0333 51.9302 59.7003 53.7462 60.2003 55.6132C61.0993 55.5132 61.9832 54.9292 62.8492 53.8632C63.8492 52.6302 64.7002 51.8802 65.3992 51.6132C65.2662 52.6462 64.8822 53.5132 64.2502 54.2132C63.9832 54.5132 63.3662 55.0462 62.3993 55.8132C60.5003 57.3472 59.9162 59.4132 60.6493 62.0132C61.4162 61.6802 62.4162 60.8802 63.6493 59.6132C64.8163 58.4132 65.8822 57.7132 66.8492 57.5132C65.5822 59.2132 64.1823 60.7462 62.6493 62.1132C61.7163 63.0462 61.1493 63.9292 60.9503 64.7632C60.6823 65.7632 61.0332 66.4632 62.0002 66.8632C62.7672 67.0632 63.2173 66.9462 63.3503 66.5132C63.6833 65.5462 64.4842 64.5962 65.7502 63.6632C67.2832 62.4962 68.2333 61.6802 68.6003 61.2132C69.0003 60.7132 69.3502 60.6632 69.6502 61.0632C69.8832 61.2962 69.8172 61.6462 69.4512 62.1132C69.0843 62.5132 68.2672 63.2462 67.0012 64.3132C65.9342 65.1462 65.1502 65.9462 64.6502 66.7132C67.0502 66.8132 68.6332 66.5632 69.4002 65.9632C70.2012 65.3962 70.7012 64.0802 70.9002 62.0132C71.1002 60.7132 71.2172 59.1302 71.2512 57.2632C71.2842 56.1962 71.3512 54.5962 71.4512 52.4632C71.4842 51.3962 71.6003 49.8302 71.8012 47.7632C71.7012 45.2302 71.4682 41.1632 71.1012 35.5632C70.8012 30.2962 70.6012 26.2472 70.5012 23.4132C70.5012 22.6132 70.6342 22.0132 70.9002 21.6132C71.1332 21.2462 71.5672 20.8962 72.2012 20.5632C73.5013 19.7962 74.5843 18.5802 75.4512 16.9132C76.2513 15.1132 76.4682 13.5302 76.1003 12.1632C74.9003 7.53024 71.8173 4.29624 66.8503 2.46324C64.9163 1.79624 63.1663 1.77924 61.6003 2.41324C60.1003 3.01424 58.6003 4.34724 57.1003 6.41324ZM46.5013 31.8642C46.4683 31.8642 44.3843 31.9302 40.2513 32.0642C39.8512 35.1312 39.6673 38.6972 39.7013 42.7642C39.7673 46.9312 40.0173 49.5642 40.4513 50.6642L42.2513 48.9142C42.6502 48.5812 43.0013 48.6642 43.3013 49.1642C43.5682 49.4312 43.5682 49.6972 43.3013 49.9642C43.0013 50.2642 42.5843 50.5972 42.0513 50.9642C40.0843 52.3312 39.5013 54.2142 40.3013 56.6142C41.6012 55.5142 42.4013 54.7812 42.7013 54.4142C43.5013 53.5142 44.1003 52.6312 44.5013 51.7642C44.6343 51.3642 44.7513 51.0972 44.8512 50.9642C45.0182 50.6972 45.3013 50.6642 45.7023 50.8642C46.3353 51.2642 46.3353 51.8312 45.7023 52.5642C44.1012 54.6312 42.9342 55.9982 42.2023 56.6642C40.4692 58.1312 39.9012 59.9312 40.5023 62.0642C41.4352 61.6642 42.5853 60.6642 43.9523 59.0642C45.2523 57.5642 46.4342 56.6642 47.5023 56.3642C46.1683 58.0642 45.2852 59.1802 44.8522 59.7142C43.8192 60.9142 42.7692 61.8972 41.7033 62.6642C40.4702 63.4642 40.3193 64.3312 41.2533 65.2642C42.0863 66.1972 42.9193 66.1472 43.7533 65.1142C43.8862 64.9812 44.6693 64.2812 46.1033 63.0142C47.0373 62.1142 47.7043 61.2812 48.1033 60.5142C48.3703 60.0812 48.7203 59.9812 49.1533 60.2142C49.6203 60.5142 49.6702 60.8812 49.3032 61.3142L44.6533 66.1642C46.3203 66.5642 47.7203 65.9972 48.8533 64.4642C49.2533 63.8312 49.5203 63.4812 49.6533 63.4142C49.9543 63.1812 50.3533 63.3142 50.8533 63.8142C51.0863 64.0142 51.3862 63.8312 51.7533 63.2642C51.9863 62.8642 52.1033 61.9312 52.1033 60.4642C52.2703 55.3642 51.8533 48.1802 50.8533 38.9142C50.6203 36.6472 50.4362 35.2972 50.3032 34.8642C49.9032 33.5642 49.5033 32.7642 49.1033 32.4642C48.6673 32.0972 47.8013 31.8972 46.5013 31.8642ZM52.3503 33.6632C52.5173 34.2962 52.6003 35.0632 52.6003 35.9632L52.7503 38.3132C53.1833 43.3132 53.5173 47.0632 53.7503 49.5632C54.1163 53.9632 54.1833 57.6802 53.9503 60.7132C53.8493 62.4132 53.5993 63.8802 53.2003 65.1132C52.4673 67.4802 50.9502 68.7302 48.6493 68.8632C46.9162 68.9292 45.7163 68.9632 45.0493 68.9632C43.6823 68.9292 42.4832 68.7132 41.4492 68.3132C40.3482 67.9132 39.5653 67.3302 39.0983 66.5632C38.6993 65.8962 38.4982 64.9132 38.4982 63.6132C38.4982 62.0462 38.3973 57.2132 38.1982 49.1132V38.1632C38.2313 35.4632 38.0312 33.2302 37.5973 31.4632C37.4973 31.0632 37.5642 30.7132 37.7972 30.4132C37.9972 30.0802 38.3302 29.9132 38.7972 29.9132H48.6473C50.4843 29.9802 51.7183 31.2302 52.3503 33.6632ZM72.0512 13.3132C72.8182 13.3132 73.2012 13.5802 73.2012 14.1132C73.2012 14.5802 72.8672 14.8632 72.2012 14.9632C71.5342 14.9292 71.2012 14.5802 71.2012 13.9132C71.1342 13.5142 71.4172 13.3132 72.0512 13.3132ZM87.5012 50.2642C87.1342 48.7642 86.4002 47.5972 85.3012 46.7642C84.1342 45.9312 82.8183 45.6142 81.3512 45.8142C80.1513 46.0142 79.3342 46.3312 78.9012 46.7642C78.5022 47.2642 78.3012 48.1142 78.3012 49.3142V53.7642C78.3342 54.0972 78.2512 54.7972 78.0512 55.8642C77.8512 56.7642 77.8842 57.5142 78.1512 58.1142C79.3182 57.3812 80.3842 56.2642 81.3512 54.7642C81.7852 54.1312 82.2352 54.0312 82.7022 54.4642C83.0023 54.7972 82.9342 55.1802 82.5023 55.6142L78.9522 59.2142C77.7192 60.3472 77.5852 61.6972 78.5522 63.2642C80.6852 61.7642 82.0853 60.4142 82.7523 59.2142C82.9853 58.6802 83.3183 58.5812 83.7523 58.9142C83.9853 59.1812 84.0022 59.4812 83.8022 59.8142C83.5022 60.3482 83.2692 60.6812 83.1022 60.8142C82.5693 61.3482 81.7032 62.1142 80.5023 63.1142C80.2692 63.3812 79.8682 63.7312 79.3022 64.1642C78.9352 64.6642 78.9522 65.1642 79.3522 65.6642C79.7523 66.1312 80.2193 66.2642 80.7523 66.0642C80.9522 65.9982 81.4013 65.6812 82.1022 65.1142C83.1022 64.2812 83.6523 63.8142 83.7523 63.7142C84.3853 63.1472 84.8353 62.5472 85.1022 61.9142C85.3022 61.5142 85.5692 61.4142 85.9022 61.6142C86.3022 61.8812 86.4022 62.2312 86.2032 62.6642C86.0033 63.1972 85.5692 63.7972 84.9022 64.4642C84.0362 65.2642 83.4692 65.8642 83.2032 66.2642C84.1362 66.5642 84.8522 66.6642 85.3522 66.5642C86.0192 66.4312 86.5362 65.9982 86.9022 65.2642C87.6352 63.6642 88.0033 62.4642 88.0033 61.6642C88.0033 60.4312 88.0362 58.5472 88.1032 56.0142C88.0342 53.7802 87.8342 51.8642 87.5012 50.2642ZM87.4002 68.1632C86.1332 69.2302 84.5342 69.5462 82.6003 69.1132C82.2012 69.0132 81.5832 68.9632 80.7502 68.9632C78.3162 68.7962 76.8332 67.4632 76.3002 64.9632C76.0332 63.4632 75.9502 62.4462 76.0502 61.9132L76.4502 54.3632C76.4832 53.3632 76.5502 51.8632 76.6492 49.8632C76.6492 48.2302 76.3992 46.7962 75.8992 45.5632C75.8662 45.4302 75.8492 45.0132 75.8492 44.3132C75.8492 43.6802 76.1162 43.2472 76.6492 43.0132C76.9502 42.8462 77.2332 42.8302 77.5002 42.9632C77.7332 43.0632 77.8832 43.2462 77.9502 43.5132C78.1823 44.1132 78.4832 44.4132 78.8492 44.4132C78.9832 44.4802 79.4152 44.3962 80.1492 44.1632C81.4502 43.7632 82.8662 43.7802 84.3992 44.2132C85.0332 44.4132 86.3492 44.9802 88.3492 45.9132C89.0492 46.2462 89.3992 46.9802 89.3992 48.1132C89.3992 48.7132 89.5492 51.2302 89.8492 55.6632C90.0492 58.6962 90.0332 61.2132 89.7992 63.2132C89.5342 65.4472 88.7342 67.0972 87.4002 68.1632ZM25.2013 37.7142C24.5343 37.6142 24.1173 37.5302 23.9513 37.4642C23.5173 37.2642 23.1833 36.9472 22.9513 36.5142L24.3503 35.9142C25.9843 35.6812 28.4002 35.9312 31.6003 36.6642C33.2342 36.9972 34.1173 37.7972 34.2503 39.0642C34.3503 40.4312 34.6493 43.1812 35.1493 47.3142C35.5493 50.7142 35.7503 53.4642 35.7503 55.5642C35.7833 57.4982 35.8003 58.9472 35.8003 59.9142C35.8003 61.7142 35.7502 63.1972 35.6502 64.3642C35.3503 67.8972 33.9173 70.0312 31.3503 70.7642C28.6833 71.6642 26.0173 71.3972 23.3503 69.9642C21.8503 69.1642 21.1003 67.8972 21.1003 66.1642C21.0343 65.7642 21.0002 65.1472 21.0002 64.3142C20.9333 63.6142 20.6493 63.0472 20.1493 62.6142C19.8822 62.3472 19.7992 62.0972 19.8993 61.8642C20.5333 60.0312 20.7332 57.7972 20.5002 55.1642C20.3993 53.6312 20.2173 51.3642 19.9503 48.3642C19.9503 48.1312 19.9163 47.2812 19.8493 45.8142C19.7833 44.8142 19.7992 43.9812 19.8993 43.3142C20.1322 41.4142 20.0163 39.7482 19.5493 38.3142L19.4493 38.0642C19.3483 37.0642 19.6993 36.5312 20.4993 36.4642C21.3652 36.3642 21.7663 36.7972 21.6993 37.7642C21.5653 40.1312 21.5823 43.2142 21.7493 47.0142C21.9823 51.8142 22.0993 54.8972 22.0993 56.2642L22.2993 57.8142C23.1653 57.4142 24.0322 56.5312 24.8993 55.1642C25.7663 53.6972 26.6323 52.6972 27.5003 52.1642C27.1003 53.4972 26.4503 54.7972 25.5503 56.0642C25.0173 56.8312 24.2343 57.8812 23.2003 59.2142C22.0993 60.8142 22.0662 62.2472 23.0993 63.5142C23.7003 63.3472 24.2493 62.9472 24.7493 62.3142C25.3153 61.6142 25.7663 61.0812 26.0993 60.7142C26.7663 59.9812 27.2333 59.5142 27.4993 59.3142C28.0653 58.8482 28.7823 58.4812 29.6483 58.2142L25.1483 63.2142C24.2153 64.2142 23.6153 64.9642 23.3483 65.4642C22.9493 66.1642 23.1313 66.8972 23.8983 67.6642C24.4313 68.2312 25.0653 68.1312 25.7983 67.3642L29.2482 63.6642C29.5152 63.2642 29.7482 62.9812 29.9482 62.8142C30.2482 62.4472 30.6473 62.2482 31.1473 62.2142C31.0143 63.3142 30.3643 64.4142 29.1982 65.5142C27.8643 66.8472 27.0643 67.8312 26.7983 68.4642C28.5312 68.7972 30.0653 68.5302 31.3983 67.6642C32.7653 66.7312 33.5653 65.4472 33.7983 63.8142C34.4653 58.8812 34.1313 52.9812 32.7983 46.1142C32.6313 45.0472 32.5153 43.4642 32.4482 41.3642C32.3143 40.2972 32.0812 39.5642 31.7482 39.1642C31.3482 38.7312 30.6313 38.4312 29.5983 38.2642L25.2013 37.7142ZM7.40025 44.1142L5.45125 44.1642C5.18325 44.1972 4.76725 44.2812 4.20125 44.4142C3.70125 44.4812 3.41725 44.2642 3.35025 43.7642C3.25025 43.3312 3.41625 42.9472 3.85025 42.6142C4.21725 42.4142 4.68325 42.2972 5.25025 42.2642H5.89925C10.0333 42.0312 12.6322 42.3972 13.7002 43.3642C14.8663 44.3972 15.4163 46.9642 15.3492 51.0642C15.3162 52.8642 15.4152 55.0472 15.6492 57.6142C15.9162 60.4812 16.1162 62.6472 16.2502 64.1142L16.3503 65.6642C16.4513 67.9312 16.1662 69.3972 15.5002 70.0642C14.8332 70.7312 13.3503 71.0142 11.0503 70.9142C9.28325 70.8812 8.13325 70.8142 7.60025 70.7142C6.30025 70.5472 5.21725 70.1642 4.35025 69.5642C3.08325 68.8312 2.38325 67.9472 2.25025 66.9142C1.85025 64.9472 1.64925 63.9142 1.64925 63.8142C1.45025 58.6472 1.11625 54.3312 0.64925 50.8642C0.64925 50.7972 0.70025 49.8312 0.79925 47.9642C0.83225 46.7642 0.61525 45.7642 0.14925 44.9642C-0.04975 44.6972 -0.04975 44.3642 0.14925 43.9642C0.34925 43.5972 0.68225 43.3972 1.14925 43.3642C1.98325 43.2312 2.39925 43.6972 2.39925 44.7642V51.4142C2.39925 52.7142 2.41625 53.5142 2.45025 53.8142C2.55025 54.7142 2.78325 55.4642 3.14925 56.0642C3.45025 56.0642 3.73325 55.9312 4.00025 55.6642C4.23325 55.3642 4.41625 55.1312 4.55025 54.9642C5.01725 54.3642 5.50025 54.0472 6.00025 54.0142C6.06625 54.7812 5.66625 55.6472 4.80025 56.6142C3.30025 58.1472 2.83325 60.2972 3.40025 63.0642C4.43325 62.4312 5.43325 61.5142 6.40025 60.3142C7.40025 58.9812 8.20125 58.0142 8.80025 57.4142C9.23425 57.6812 9.38325 57.9812 9.25025 58.3142C9.01725 58.6472 8.86625 58.8812 8.80025 59.0142C8.00025 60.2472 6.80025 61.5972 5.20025 63.0642C3.63325 64.4642 3.55025 65.8642 4.95025 67.2642C5.91625 66.9972 7.00025 66.0812 8.20025 64.5142C9.46725 62.8472 10.6663 61.7812 11.8003 61.3142C11.2002 62.5142 10.3333 63.7312 9.20025 64.9642C8.56625 65.6972 7.64925 66.6972 6.45025 67.9642C7.68225 68.5972 8.56625 68.8972 9.09925 68.8642C9.63225 68.7642 10.2662 68.2312 10.9992 67.2642L12.0493 65.7142C12.2163 65.4142 12.4832 65.3472 12.8492 65.5142C13.2162 65.6812 13.2992 65.9472 13.0992 66.3142C12.8322 66.8482 12.4322 67.4982 11.8992 68.2642C13.2662 68.2642 14.0663 68.1642 14.2993 67.9642C14.5323 67.7972 14.6153 67.1972 14.5493 66.1642C14.0163 58.5982 13.5662 52.9972 13.1993 49.3642C12.9993 47.5312 12.4312 46.2142 11.4992 45.4142C10.6342 44.6142 9.26725 44.1802 7.40025 44.1142Z" fill="black" style="fill:black;fill-opacity:1;"/>
<path d="M76.5644 75.1945C75.4334 75.1945 74.3622 74.6667 73.6758 73.7567L64.386 61.4821C64.0981 61.1032 63.8879 60.6713 63.7673 60.2111C63.6468 59.7508 63.6183 59.2713 63.6835 58.8C63.7488 58.3287 63.9064 57.8749 64.1474 57.4647C64.3884 57.0544 64.7081 56.6958 65.088 56.4095C65.467 56.1208 65.8993 55.9099 66.3601 55.7889C66.8208 55.6679 67.301 55.6392 67.7729 55.7044C68.2448 55.7696 68.6992 55.9275 69.1098 56.169C69.5205 56.4105 69.8794 56.7308 70.1658 57.1115L76.2784 65.1819L91.647 40.5027C92.1567 39.6878 92.9688 39.1084 93.9051 38.8915C94.8414 38.6746 95.8255 38.8379 96.6416 39.3457C98.3394 40.4013 98.862 42.6373 97.8012 44.3377L79.6428 73.4837C79.3328 73.9834 78.9056 74.4 78.3981 74.6972C77.8907 74.9944 77.3183 75.1633 76.7308 75.1893L76.5644 75.1945Z" fill="#EB5017" style="fill:#EB5017;fill:color(display-p3 0.9200 0.3146 0.0920);fill-opacity:1;"/>
</svg>
