<svg width="40" height="39" viewBox="0 0 40 39" fill="none" xmlns="http://www.w3.org/2000/svg">
<path d="M1.16843 0.302905C0.953444 0.343707 0.79904 0.533584 0.802802 0.752646V6.15137C0.802802 6.39994 1.00429 6.60142 1.25285 6.60142H3.95258V16.4998H1.25285C1.00429 16.5001 0.802802 16.701 0.802802 16.9496V22.3483C0.802802 22.5969 1.00429 22.7983 1.25285 22.7983H3.95258V32.6967H1.25285C1.00429 32.6971 0.802802 32.8979 0.802802 33.1465V38.5452C0.802802 38.7938 1.00429 38.9952 1.25285 38.9952H6.6519C6.90046 38.9952 7.10196 38.7938 7.10196 38.5452V36.2956H17.0003V38.5452C17.0003 38.7938 17.2018 38.9952 17.4501 38.9952H22.8495C23.0977 38.9952 23.2992 38.7938 23.2992 38.5452V36.2956H33.1976V38.5452C33.1976 38.7938 33.3991 38.9952 33.6476 38.9952H39.0467C39.2953 38.9952 39.4967 38.7938 39.4967 38.5452V33.1465C39.4967 32.8979 39.2953 32.6967 39.0467 32.6964H36.347V22.798H39.0467C39.2953 22.798 39.4967 22.5969 39.4967 22.3483V16.9496C39.4967 16.701 39.2953 16.4998 39.0467 16.4995H36.347V6.60111H39.0467C39.2953 6.60111 39.4967 6.39994 39.4967 6.15137V0.752646C39.5005 0.533584 39.3461 0.343715 39.1311 0.302905C39.1032 0.300082 39.0749 0.300082 39.0467 0.302905H33.6476C33.3991 0.302905 33.1976 0.504077 33.1976 0.752646V3.00228H23.2992V0.752646C23.2992 0.504077 23.0977 0.302905 22.8495 0.302905H17.4501C17.4222 0.300082 17.3939 0.300082 17.366 0.302905C17.1507 0.343707 16.9966 0.533584 17.0003 0.752646V3.00228H13.4009C13.3729 2.99946 13.3447 2.99946 13.3164 3.00228C13.1969 3.01295 13.0867 3.07101 13.0098 3.16328C12.9332 3.25586 12.8962 3.37481 12.9075 3.49439C12.9188 3.61397 12.9772 3.72412 13.0697 3.8007C13.162 3.87696 13.2813 3.91336 13.4009 3.90207H17.0003V6.15171C17.0003 6.40028 17.2018 6.60145 17.4501 6.60145H22.8495C23.0977 6.60145 23.2992 6.39996 23.2992 6.15139V3.90176H33.1976V6.15139C33.1976 6.39996 33.3991 6.60145 33.6476 6.60145H35.4472V16.4998H33.6476C33.3991 16.5002 33.1976 16.701 33.1976 16.9496V22.3483C33.1979 22.5969 33.3991 22.7984 33.6476 22.7984H35.4472V32.6968H33.6476C33.3991 32.6971 33.1979 32.8979 33.1976 33.1465V35.3961H23.2992V33.1465C23.2992 32.8979 23.0977 32.6968 22.8495 32.6964H17.4501C17.2018 32.6968 17.0003 32.8979 17.0003 33.1465V35.3961H7.10196V33.1465C7.10163 32.8979 6.90047 32.6968 6.6519 32.6964H4.85236V22.798H6.6519C6.90047 22.798 7.10164 22.5969 7.10196 22.3483V16.9496C7.10196 16.701 6.90047 16.4998 6.6519 16.4995H4.85236V6.60113H6.6519C6.90047 6.60113 7.10196 6.39996 7.10196 6.1514V3.90176H10.7015C10.822 3.90333 10.9378 3.85719 11.0238 3.77245C11.1094 3.68803 11.1578 3.57253 11.1578 3.45201C11.1578 3.3315 11.1094 3.21632 11.0238 3.13158C10.9378 3.04716 10.8216 3.00039 10.7011 3.00227H7.10163V0.752639C7.10163 0.504073 6.90047 0.302901 6.6519 0.302901H1.25285C1.22461 0.300075 1.19636 0.300078 1.16843 0.302905ZM1.70259 1.20268H6.20186V5.70162H1.70259V1.20268ZM17.9 1.20268H22.3992V5.70162H17.9V1.20268ZM34.0973 1.20268H38.5966V5.70162H34.0973V1.20268ZM1.70259 17.3992H6.20186V21.8982H1.70259V17.3992ZM34.0973 17.3992H38.5966V21.8982H34.0973V17.3992ZM1.70259 33.5958H6.20186V38.0948H1.70259V33.5958ZM17.8999 33.5958H22.3992V38.0948H17.8999V33.5958ZM34.0973 33.5958H38.5966V38.0948H34.0973V33.5958Z" fill="white"/>
</svg>
