<svg width="144" height="85" viewBox="0 0 144 85" fill="none" xmlns="http://www.w3.org/2000/svg">
<path d="M141 75.5139C132.355 70.8733 129.23 64.0244 127.94 61.3639C128.506 59.1198 128.797 56.8148 128.807 54.5C128.807 38.7593 116.091 26 100.404 26C84.7162 26 72 38.7564 72 54.5C72 70.2436 84.7162 83 100.404 83C107.803 83.0057 114.911 80.1024 120.203 74.9126C129.589 79.9441 141 75.5139 141 75.5139Z" fill="#FFF3E4" stroke="#F07639" stroke-width="2" stroke-miterlimit="10"/>
<path d="M69.4247 81C60.3092 81.0069 51.5186 77.7826 44.5971 71.9518C38.6516 74.3445 32.5377 74.378 27.9044 73.8303C25.2124 73.5121 22.9176 72.9859 21.2875 72.5372C20.4699 72.3122 19.8127 72.1047 19.3484 71.9492C19.1161 71.8713 18.9315 71.8063 18.7988 71.7583C18.7324 71.7343 18.6789 71.7146 18.6389 71.6996L18.5889 71.6807L18.5716 71.6741L18.5648 71.6715L18.5619 71.6704C18.5606 71.6699 18.5594 71.6694 20 67.9379L18.5594 71.6694L10.4095 68.5231L18.1164 64.4091C26.3432 60.0177 29.9156 53.8483 31.6803 50.3269C31.1354 47.7603 30.8546 45.1434 30.8434 42.5172L30.8433 42.5086V42.5C30.8433 21.2278 48.1233 4 69.4217 4C90.7197 4 108 21.2239 108 42.5C108 63.775 90.7214 80.9984 69.4247 81ZM69.4247 81L69.4217 77V81C69.4227 81 69.4237 81 69.4247 81Z" fill="#FFF3E4" stroke="#FAF9F5" stroke-width="8" stroke-miterlimit="10"/>
<path d="M69.4224 78C60.3942 78.0069 51.7128 74.5765 45.1418 68.4244C39.3524 71.2833 33.0806 71.4213 28.2565 70.851C25.7456 70.5542 23.6018 70.0627 22.0836 69.6448C21.3239 69.4357 20.7192 69.2446 20.3015 69.1046C20.0926 69.0346 19.9304 68.9774 19.8188 68.937C19.763 68.9169 19.7199 68.9009 19.6899 68.8897L19.6548 68.8765L19.6448 68.8727L19.6417 68.8715L19.6406 68.8711C19.6402 68.8709 19.6398 68.8708 20 67.9379L19.6398 68.8708L17.6024 68.0842L19.5291 67.0557C29.4229 61.7744 33.1982 54.0809 34.8409 50.6978C34.1901 48.0151 33.8552 45.2653 33.8433 42.5043V42.5C33.8433 22.8911 49.7738 7 69.4217 7C89.0695 7 105 22.8874 105 42.5C105 62.1123 89.0699 77.9996 69.4224 78ZM69.4224 78L69.4217 77V78C69.4219 78 69.4222 78 69.4224 78Z" fill="#FFF3E4" stroke="black" stroke-width="2" stroke-miterlimit="10"/>
<path d="M59 44C59 44.7911 58.7654 45.5645 58.3259 46.2223C57.8864 46.8801 57.2616 47.3928 56.5307 47.6955C55.7998 47.9983 54.9956 48.0775 54.2196 47.9231C53.4437 47.7688 52.731 47.3878 52.1716 46.8284C51.6122 46.269 51.2312 45.5563 51.0769 44.7804C50.9225 44.0044 51.0017 43.2002 51.3045 42.4693C51.6072 41.7384 52.1199 41.1136 52.7777 40.6741C53.4355 40.2346 54.2089 40 55 40C55.5254 39.9997 56.0457 40.1029 56.5311 40.3038C57.0166 40.5047 57.4577 40.7993 57.8292 41.1708C58.2007 41.5423 58.4953 41.9834 58.6962 42.4689C58.8971 42.9543 59.0003 43.4746 59 44Z" fill="#F07639"/>
<path d="M83 48C85.2091 48 87 46.2091 87 44C87 41.7909 85.2091 40 83 40C80.7909 40 79 41.7909 79 44C79 46.2091 80.7909 48 83 48Z" fill="#F07639"/>
<path d="M69 48C71.2091 48 73 46.2091 73 44C73 41.7909 71.2091 40 69 40C66.7909 40 65 41.7909 65 44C65 46.2091 66.7909 48 69 48Z" fill="#F07639"/>
</svg>
