<svg xmlns="http://www.w3.org/2000/svg" width="42.268" height="39.402" viewBox="0 0 42.268 39.402">
  <g id="noun-certified-5896514" transform="translate(-25.481 -77.25)">
    <path id="Path_10648" data-name="Path 10648" d="M105.016,80.6a6.023,6.023,0,0,0-3.839-2.694A27.028,27.028,0,0,0,94.7,77.25h-.014l-12.733.074H81.9c-4.315.231-7.082.94-8.46,3.884-1.01,2.157-1.154,5.4-1.175,10.453-2.8.274-4.949.923-6.278,2.752-1.342,1.847-1.654,4.641-1.74,8.84v.013l.009,1.94v.022c.132,5.374.7,8.393,3.443,9.981a7.267,7.267,0,0,0,1.324.59l.02.007c2.524.845,6.28.846,12.3.846h8.046c8.306,0,12.475,0,14.8-2.326s2.326-6.495,2.326-14.8v-5.18C106.518,87.083,106.518,83.084,105.016,80.6ZM66.463,105.185l-.009-1.9c.075-3.66.323-6.2,1.319-7.576.742-1.022,2.042-1.565,4.49-1.83v5.666c0,9.927-.119,12.854-2.9,14.03a4.7,4.7,0,0,1-.559-.271c-1.646-.953-2.215-2.926-2.344-8.117Zm37.85-5.66c0,7.455,0,11.562-1.681,13.242s-5.787,1.681-13.242,1.681H81.344c-3.9,0-6.884,0-9.081-.238a7.275,7.275,0,0,0,1.681-3.571c.524-2.481.524-5.908.524-11.1V92.86a1.085,1.085,0,0,0,.012-.255c0-.035-.007-.071-.012-.106.009-5.225.1-8.493.97-10.356.7-1.5,1.959-2.366,6.556-2.614l12.678-.074c5.421.111,7.478.668,8.458,2.289,1.183,1.955,1.183,5.963,1.183,12.6v5.18Z" transform="translate(-38.768)"/>
    <path id="Path_10649" data-name="Path 10649" d="M220.43,289.437l-3.835,3.835-1.646-1.646a1.1,1.1,0,1,0-1.558,1.558l2.425,2.425a1.1,1.1,0,0,0,1.558,0L221.989,291a1.1,1.1,0,0,0-1.558-1.558Z" transform="translate(-171.184 -188.514)"/>
    <path id="Path_10650" data-name="Path 10650" d="M221.052,168.12h-17.96a1.1,1.1,0,1,0,0,2.2h17.96a1.1,1.1,0,1,0,0-2.2Z" transform="translate(-161.327 -80.855)"/>
    <path id="Path_10651" data-name="Path 10651" d="M221.052,216.12h-17.96a1.1,1.1,0,1,0,0,2.2h17.96a1.1,1.1,0,1,0,0-2.2Z" transform="translate(-161.327 -123.564)"/>
  </g>
</svg>
