<svg width="36" height="36" viewBox="0 0 36 36" fill="none" xmlns="http://www.w3.org/2000/svg">
<path d="M16.4097 3.37508C16.8316 2.95327 17.4038 2.71631 18.0004 2.71631C18.5971 2.71631 19.1693 2.95327 19.5912 3.37508L24.7504 8.53433V5.62508C24.7504 5.32671 24.869 5.04056 25.0799 4.82958C25.2909 4.6186 25.5771 4.50008 25.8754 4.50008H28.1254C28.4238 4.50008 28.71 4.6186 28.9209 4.82958C29.1319 5.04056 29.2504 5.32671 29.2504 5.62508V13.0343L34.5469 18.3286C34.6515 18.4332 34.7345 18.5574 34.7911 18.694C34.8477 18.8307 34.8769 18.9772 34.8769 19.1251C34.8769 19.273 34.8477 19.4195 34.7911 19.5561C34.7345 19.6928 34.6515 19.817 34.5469 19.9216C34.4423 20.0262 34.3182 20.1091 34.1815 20.1658C34.0448 20.2224 33.8984 20.2515 33.7504 20.2515C33.6025 20.2515 33.456 20.2224 33.3194 20.1658C33.1827 20.1091 33.0585 20.0262 32.9539 19.9216L18.0004 4.96583L6.75044 16.2158V30.3751C6.75044 30.6734 6.86897 30.9596 7.07995 31.1706C7.29093 31.3816 7.57708 31.5001 7.87544 31.5001H16.8754C17.1738 31.5001 17.46 31.6186 17.6709 31.8296C17.8819 32.0406 18.0004 32.3267 18.0004 32.6251C18.0004 32.9234 17.8819 33.2096 17.6709 33.4206C17.46 33.6316 17.1738 33.7501 16.8754 33.7501H7.87544C6.98034 33.7501 6.12189 33.3945 5.48896 32.7616C4.85602 32.1286 4.50044 31.2702 4.50044 30.3751V18.4658L3.04694 19.9216C2.94235 20.0262 2.81817 20.1091 2.68151 20.1658C2.54484 20.2224 2.39837 20.2515 2.25044 20.2515C2.10252 20.2515 1.95605 20.2224 1.81938 20.1658C1.68272 20.1091 1.55854 20.0262 1.45394 19.9216C1.34935 19.817 1.26638 19.6928 1.20977 19.5561C1.15316 19.4195 1.12402 19.273 1.12402 19.1251C1.12402 18.9772 1.15316 18.8307 1.20977 18.694C1.26638 18.5574 1.34935 18.4332 1.45394 18.3286L16.4097 3.37508Z" fill="black"/>
<path d="M27 33.75C30.728 33.75 33.75 30.728 33.75 27C33.75 23.272 30.728 20.25 27 20.25C23.272 20.25 20.25 23.272 20.25 27C20.25 30.728 23.272 33.75 27 33.75Z" stroke="black" stroke-width="1.3" stroke-linecap="round" stroke-linejoin="round"/>
<path d="M29.0256 24.6393C28.5632 24.1769 27.7492 23.8556 27.0006 23.8353M27.0006 23.8353C26.1096 23.811 25.3131 24.214 25.3131 25.3143C25.3131 27.3393 29.0256 26.3268 29.0256 28.3518C29.0256 29.5067 28.0374 30.0028 27.0006 29.9657M27.0006 23.8353V22.6143M24.9756 29.0268C25.4103 29.6073 26.2196 29.938 27.0006 29.9657M27.0006 29.9657V31.3893" stroke="black" stroke-width="1.3" stroke-linecap="round" stroke-linejoin="round"/>
</svg>
