<?xml version="1.0" encoding="utf-8"?>
<!-- Generator: Adobe Illustrator 24.0.2, SVG Export Plug-In . SVG Version: 6.00 Build 0)  -->
<svg version="1.1" id="Layer_1" xmlns="http://www.w3.org/2000/svg" xmlns:xlink="http://www.w3.org/1999/xlink" x="0px" y="0px"
	 viewBox="0 0 233 73.6" style="enable-background:new 0 0 233 73.6;" xml:space="preserve">
<style type="text/css">
	.st0{fill:#1D1C1E;}
	.st1{fill:#F47521;}
	.st2{fill:#F57F2E;}
</style>
<g>
	<path class="st0" d="M30.4,15C17.5,15,7.1,25.5,7.1,38.4v15.4c0,4.4,3.5,7.9,7.9,7.9h30.7c2.3,0,4.3-1,5.8-2.5
		c1.3-1.4,2.1-3.3,2.1-5.4V38.4C53.6,25.5,43.2,15,30.4,15z"/>
	<path class="st1" d="M45.7,62.9H15c-5,0-9.1-4.1-9.1-9.1V38.4c0-13.5,11-24.5,24.4-24.5c13.5,0,24.4,11,24.4,24.5v15.4
		c0,2.3-0.9,4.5-2.5,6.2C50.6,61.8,48.2,62.9,45.7,62.9z M30.4,16.2c-12.2,0-22.1,10-22.1,22.2v15.4c0,3.7,3,6.8,6.8,6.8h30.7
		c1.9,0,3.6-0.8,4.9-2.1c1.2-1.3,1.8-2.9,1.8-4.7V38.4C52.5,26.1,42.6,16.2,30.4,16.2z"/>
</g>
<g>
	<g>
		<path class="st2" d="M45.7,39.7c0,3-2.4,5.4-5.4,5.4c-3,0-5.4-2.4-5.4-5.4c0-3,2.4-5.4,5.4-5.4c0.3,0,0.7,0,1,0.1L42,31
			c-0.6-0.1-1.1-0.2-1.7-0.2c-4.9,0-8.8,4-8.8,8.8c0,4.9,4,8.8,8.8,8.8s8.8-4,8.8-8.8H45.7z"/>
	</g>
</g>
<g>
	<g>
		<path class="st2" d="M20.1,48.5c-4.9,0-8.8-4-8.8-8.8s4-8.8,8.8-8.8s8.8,4,8.8,8.8S25,48.5,20.1,48.5z M20.1,34.3
			c-3,0-5.4,2.4-5.4,5.4s2.4,5.4,5.4,5.4s5.4-2.4,5.4-5.4S23.1,34.3,20.1,34.3z"/>
	</g>
</g>
<g>
	<path d="M67,36.2l3.4-0.4c0.2,2.4,2,4.1,4.5,4.1c2.6,0,4.3-1.2,4.3-3c0-2.2-2.3-2.7-4.9-3.1c-3.1-0.5-6.8-1.2-6.8-5.2
		c0-3.4,2.9-5.7,7.3-5.7c4,0,7,2.5,7.3,6.2l-3.4,0.4c-0.1-2.3-1.8-3.8-4-3.8c-2.2,0-3.7,1.1-3.7,2.7c0,1.9,2.1,2.3,4.6,2.7
		c3.2,0.5,7.1,1.3,7.1,5.5c0,3.6-3.1,6.1-7.8,6.1C70.5,42.7,67.4,40.1,67,36.2z"/>
	<path d="M96.6,34.1v8.3h-3.3v-7.8c0-1.7-1.1-2.8-2.7-2.8c-1.8,0-3,1.4-3,3.5v7.2h-3.3v-13h3.3v2.2h0c0.8-1.5,2.6-2.5,4.5-2.5
		C94.8,29.2,96.6,31.1,96.6,34.1z"/>
	<path d="M111.2,40.1v2.2c-0.5,0.2-1.4,0.4-2.1,0.4c-1.2,0-2.1-0.8-2.3-2l0-0.3c-0.9,1.4-2.8,2.3-4.8,2.3c-2.5,0-4.1-1.4-4.1-3.5
		c0-3.3,3-3.8,8.9-5v-0.9c0-1.2-1-2.1-2.5-2.1c-1.6,0-2.6,1-2.7,2.4l-3.1-0.2c0.1-2.5,2.4-4.2,5.8-4.2c3.3,0,5.6,1.7,5.6,4.3v5.8
		c0,0.5,0.3,0.9,0.8,0.9C110.7,40.2,111,40.2,111.2,40.1z M106.6,37.4v-1.4c-3.4,0.7-5.7,1.1-5.7,2.9c0,1,0.8,1.6,2.1,1.6
		C105.2,40.5,106.6,39,106.6,37.4z"/>
	<path d="M125.7,35.9c0,4.1-2.2,6.8-5.5,6.8c-2,0-3.9-1-4.6-2.6h0v8.1h-3.3V29.4h3.3v2.3h0c0.8-1.6,2.6-2.6,4.6-2.6
		C123.5,29.2,125.7,31.9,125.7,35.9z M122.4,35.9c0-2.5-1.4-4.2-3.4-4.2c-2,0-3.4,1.7-3.4,4.2c0,2.5,1.4,4.1,3.4,4.1
		C121,40.1,122.4,38.4,122.4,35.9z"/>
	<path class="st2" d="M127.6,23.2h3.4v19.2h-3.4V23.2z"/>
	<path class="st2" d="M145.9,34.1v8.3h-3.3v-7.8c0-1.7-1.1-2.8-2.7-2.8c-1.8,0-3,1.4-3,3.5v7.2h-3.3v-13h3.3v2.2h0
		c0.8-1.5,2.6-2.5,4.5-2.5C144.1,29.2,145.9,31.1,145.9,34.1z"/>
	<path class="st2" d="M152,31.7v6.6c0,1.1,0.9,1.8,2.2,1.8c0.6,0,1.3-0.1,1.8-0.4v2.3c-0.8,0.3-2,0.6-2.9,0.6c-2.6,0-4.4-1.6-4.4-4
		v-6.9h-2v-2.1h0.3c1.8,0,2.5-1.1,2.8-4h2.2v3.8h4v2.3H152z"/>
	<path class="st2" d="M169.7,36.5h-10.1c0.2,2.3,1.4,3.8,3.4,3.8c1.7,0,3-1,3.4-2.5l3.1,0.4c-0.6,2.7-3.2,4.5-6.5,4.5
		c-4,0-6.7-2.7-6.7-6.8c0-4.1,2.7-6.8,6.7-6.8c4,0,6.6,2.7,6.6,6.9V36.5z M159.6,34.8h6.8c-0.3-2.1-1.6-3.4-3.3-3.4
		C161.2,31.4,160,32.7,159.6,34.8z"/>
	<path class="st2" d="M180.7,29.6l-0.8,3c-0.5-0.3-1.3-0.5-2-0.5c-2.1,0-3.5,1.7-3.5,4.3v6.1h-3.3v-13h3.3v2.7h0
		c0.7-1.8,2.3-2.9,4.1-2.9C179.3,29.2,180.1,29.3,180.7,29.6z"/>
	<path class="st2" d="M193.8,36.5h-10.1c0.2,2.3,1.4,3.8,3.4,3.8c1.7,0,3-1,3.4-2.5l3.1,0.4c-0.6,2.7-3.2,4.5-6.5,4.5
		c-4,0-6.7-2.7-6.7-6.8c0-4.1,2.7-6.8,6.7-6.8c4,0,6.6,2.7,6.6,6.9V36.5z M183.7,34.8h6.8c-0.3-2.1-1.6-3.4-3.3-3.4
		C185.4,31.4,184.1,32.7,183.7,34.8z"/>
	<path class="st2" d="M194.3,38.5l3.1-0.3c0.1,1.5,1.2,2.4,2.9,2.4c1.7,0,2.8-0.7,2.8-1.8c0-1.4-1.6-1.7-3.4-2c-2.3-0.4-5-0.9-5-3.8
		c0-2.4,2.2-3.9,5.6-3.9c3.2,0,5.5,1.6,5.6,4.1l-3.1,0.2c-0.1-1.3-1.1-2.2-2.5-2.2c-1.5,0-2.4,0.6-2.4,1.6c0,1.1,1.5,1.4,3.2,1.7
		c2.3,0.4,5.2,1,5.2,3.9c0,2.5-2.4,4.2-5.9,4.2C196.8,42.7,194.4,41,194.3,38.5z"/>
	<path class="st2" d="M211.7,31.7v6.6c0,1.1,0.9,1.8,2.2,1.8c0.6,0,1.3-0.1,1.8-0.4v2.3c-0.8,0.3-2,0.6-2.9,0.6
		c-2.6,0-4.4-1.6-4.4-4v-6.9h-2v-2.1h0.3c1.8,0,2.5-1.1,2.8-4h2.2v3.8h4v2.3H211.7z"/>
</g>
<g>
	<path d="M74.2,54.4c0,1.3-1.1,2.2-2.8,2.2H68v-7.7h3.1c1.6,0,2.7,0.8,2.7,2.1c0,0.8-0.5,1.3-1.2,1.6v0
		C73.5,52.9,74.2,53.5,74.2,54.4z M69.4,50v2.2h1.8c0.7,0,1.2-0.4,1.2-1.1c0-0.7-0.5-1.1-1.2-1.1H69.4z M72.7,54.3
		c0-0.7-0.5-1.2-1.3-1.2h-2v2.4h2C72.2,55.5,72.7,55,72.7,54.3z"/>
	<path d="M80.2,51.4l-2.3,6c-0.4,1.1-1,1.6-1.7,1.6c-0.3,0-0.6,0-0.9-0.1v-0.9c0.1,0,0.3,0.1,0.6,0.1c0.3,0,0.5-0.2,0.8-0.7l0.2-0.4
		l-2.1-5.5H76l1.4,4h0l1.4-4H80.2z"/>
	<path d="M82.9,54.1l1.4-0.1c0.1,1,0.8,1.6,1.8,1.6c1,0,1.7-0.5,1.7-1.2c0-0.9-0.9-1.1-1.9-1.2c-1.3-0.2-2.7-0.5-2.7-2.1
		c0-1.4,1.2-2.3,2.9-2.3c1.6,0,2.8,1,2.9,2.5l-1.4,0.2c-0.1-0.9-0.7-1.5-1.6-1.5c-0.9,0-1.5,0.4-1.5,1.1c0,0.8,0.8,0.9,1.8,1.1
		c1.3,0.2,2.8,0.5,2.8,2.2c0,1.5-1.2,2.4-3.1,2.4C84.3,56.7,83,55.6,82.9,54.1z"/>
	<path d="M95.2,53.2v3.3h-1.3v-3.1c0-0.7-0.4-1.1-1.1-1.1c-0.7,0-1.2,0.5-1.2,1.4v2.9h-1.3v-5.2h1.3v0.9h0c0.3-0.6,1-1,1.8-1
		C94.5,51.3,95.2,52,95.2,53.2z"/>
	<path d="M101.5,55.6v0.9c-0.2,0.1-0.6,0.2-0.9,0.2c-0.5,0-0.9-0.3-0.9-0.8l0-0.1c-0.4,0.6-1.1,0.9-1.9,0.9c-1,0-1.7-0.6-1.7-1.4
		c0-1.3,1.2-1.5,3.6-2v-0.3c0-0.5-0.4-0.8-1-0.8c-0.6,0-1.1,0.4-1.1,0.9L96.4,53c0-1,1-1.7,2.3-1.7c1.3,0,2.2,0.7,2.2,1.7v2.3
		c0,0.2,0.1,0.4,0.3,0.4C101.3,55.7,101.4,55.7,101.5,55.6z M99.7,54.5V54c-1.3,0.3-2.3,0.4-2.3,1.2c0,0.4,0.3,0.7,0.8,0.7
		C99.1,55.8,99.7,55.2,99.7,54.5z"/>
	<path d="M107.8,54c0,1.6-0.9,2.7-2.2,2.7c-0.8,0-1.5-0.4-1.8-1h0v3.2h-1.3v-7.5h1.3v0.9h0c0.3-0.6,1-1,1.8-1
		C106.9,51.3,107.8,52.3,107.8,54z M106.5,54c0-1-0.5-1.7-1.4-1.7c-0.8,0-1.4,0.7-1.4,1.7c0,1,0.5,1.7,1.4,1.7
		C105.9,55.6,106.5,54.9,106.5,54z"/>
	<path d="M113.8,53.2v3.3h-1.3v-3.1c0-0.7-0.4-1.1-1.1-1.1c-0.7,0-1.2,0.5-1.2,1.4v2.9h-1.3v-7.7h1.3v3.4h0c0.3-0.6,1-1,1.8-1
		C113.1,51.3,113.8,52,113.8,53.2z"/>
	<path d="M114.8,54c0-1.6,1.1-2.7,2.7-2.7s2.7,1.1,2.7,2.7c0,1.6-1.1,2.7-2.7,2.7S114.8,55.6,114.8,54z M118.9,54
		c0-1-0.5-1.7-1.4-1.7s-1.4,0.7-1.4,1.7c0,1,0.5,1.7,1.4,1.7S118.9,54.9,118.9,54z"/>
	<path d="M129.4,53.2v3.4h-1.3v-3.2c0-0.7-0.4-1.1-1-1.1c-0.7,0-1.1,0.5-1.1,1.4v2.9h-1.3v-3.2c0-0.7-0.4-1.1-1-1.1
		c-0.7,0-1.1,0.5-1.1,1.4v2.9h-1.3v-5.2h1.3v0.9h0c0.3-0.6,1-1,1.7-1c0.7,0,1.3,0.4,1.5,1.1h0c0.3-0.7,1.1-1.1,1.8-1.1
		C128.8,51.3,129.4,52,129.4,53.2z"/>
	<path d="M134.9,55.6v1h-4.5v-1l2.9-3.2v0h-2.7v-1h4.2v1l-2.9,3.2v0H134.9z"/>
</g>
</svg>
